<?xml version="1.0" encoding="UTF-8" standalone="no"?>
<!-- Created with Inkscape (http://www.inkscape.org/) -->

<svg
   xmlns:dc="http://purl.org/dc/elements/1.1/"
   xmlns:cc="http://creativecommons.org/ns#"
   xmlns:rdf="http://www.w3.org/1999/02/22-rdf-syntax-ns#"
   xmlns:svg="http://www.w3.org/2000/svg"
   xmlns="http://www.w3.org/2000/svg"
   xmlns:xlink="http://www.w3.org/1999/xlink"
   xmlns:sodipodi="http://sodipodi.sourceforge.net/DTD/sodipodi-0.dtd"
   xmlns:inkscape="http://www.inkscape.org/namespaces/inkscape"
   id="svg2"
   version="1.1"
   inkscape:version="0.48.1 r9760"
   width="200"
   height="200"
   xml:space="preserve"
   sodipodi:docname="logo-beansight_def.ai"><metadata
     id="metadata8"><rdf:RDF><cc:Work
         rdf:about=""><dc:format>image/svg+xml</dc:format><dc:type
           rdf:resource="http://purl.org/dc/dcmitype/StillImage" /><dc:title></dc:title></cc:Work></rdf:RDF></metadata><defs
     id="defs6"><clipPath
       clipPathUnits="userSpaceOnUse"
       id="clipPath16"><path
         d="m 0,14400 14400,0 L 14400,0 0,0 0,14400 z"
         id="path18"
         inkscape:connector-curvature="0" /></clipPath><clipPath
       clipPathUnits="userSpaceOnUse"
       id="clipPath64"><path
         d="m 6981.116,7206.835 c -2.089,-2.085 -3.165,-4.677 -3.165,-7.622 l 0,0 c 0,-2.949 1.076,-5.54 3.165,-7.626 l 0,0 c 2.082,-2.085 4.673,-3.165 7.622,-3.165 l 0,0 c 3.596,0 6.686,-1.29 9.205,-3.809 l 0,0 0,-0.072 0.072,0 c 2.66,-2.66 3.957,-5.754 3.957,-9.422 l 0,0 c 0,-3.596 -1.297,-6.689 -3.957,-9.205 l 0,0 -0.072,-0.072 0,-0.072 c -2.519,-2.591 -5.609,-3.882 -9.205,-3.882 l 0,0 c -3.668,0 -6.761,1.291 -9.422,3.954 l 0,0 c -1.767,1.767 -2.92,3.777 -3.48,6.017 l 0,0 c 1.626,-11.004 8.959,-44.896 35.659,-22.843 l 0,0 c 0.571,0.516 1.146,1.019 1.695,1.579 l 0,0 c 0.072,0 0.072,0 0.144,0.072 l 0,0 c 6.831,6.834 10.213,14.958 10.213,24.452 l 0,0 c 0,9.566 -3.455,17.766 -10.285,24.669 l 0,0 c -6.762,6.834 -14.958,10.209 -24.524,10.209 l 0,0 c -2.949,0 -5.54,-1.077 -7.622,-3.162"
         id="path66"
         inkscape:connector-curvature="0" /></clipPath><linearGradient
       x1="0"
       y1="0"
       x2="1"
       y2="0"
       gradientUnits="userSpaceOnUse"
       gradientTransform="matrix(-36.213135,-13.430344,-13.430344,36.213135,7001.6875,7179.2422)"
       spreadMethod="pad"
       id="linearGradient72"><stop
         style="stop-opacity:1;stop-color:#7aa13d"
         offset="0"
         id="stop74" /><stop
         style="stop-opacity:1;stop-color:#00505c"
         offset="1"
         id="stop76" /></linearGradient><clipPath
       clipPathUnits="userSpaceOnUse"
       id="clipPath84"><path
         d="m 0,14400 14400,0 L 14400,0 0,0 0,14400 z"
         id="path86"
         inkscape:connector-curvature="0" /></clipPath><clipPath
       clipPathUnits="userSpaceOnUse"
       id="clipPath100"><path
         d="m 6953.258,7227.208 c -0.039,0.119 -0.079,0.237 -0.121,0.356 l 0,0 c 0.04,-0.119 0.082,-0.237 0.121,-0.356 m 0.111,-0.359 c -0.033,0.121 -0.071,0.24 -0.111,0.359 l 0,0 c 0.039,-0.119 0.076,-0.238 0.111,-0.359"
         id="path102"
         inkscape:connector-curvature="0" /></clipPath><linearGradient
       x1="0"
       y1="0"
       x2="1"
       y2="0"
       gradientUnits="userSpaceOnUse"
       gradientTransform="matrix(35.461395,13.15155,13.15155,-35.461395,6928.6191,7218.0698)"
       spreadMethod="pad"
       id="linearGradient108"><stop
         style="stop-opacity:1;stop-color:#7aa13d"
         offset="0"
         id="stop110" /><stop
         style="stop-opacity:1;stop-color:#00505c"
         offset="1"
         id="stop112" /></linearGradient><clipPath
       clipPathUnits="userSpaceOnUse"
       id="clipPath120"><path
         d="m 6917.8,7249.421 c -0.571,-0.517 -1.145,-1.019 -1.695,-1.579 l 0,0 c -0.072,0 -0.072,0 -0.144,-0.076 l 0,0 c -6.834,-6.83 -10.213,-14.958 -10.213,-24.452 l 0,0 c 0,-0.014 0,-0.025 0,-0.04 l 0,0 c 0.011,9.476 3.387,17.589 10.21,24.409 l 0,0 c 0.072,0.072 0.072,0.072 0.144,0.072 l 0,0 c 0.763,0.781 1.554,1.507 2.356,2.198 l 0,0 c -0.22,-0.178 -0.437,-0.348 -0.661,-0.532"
         id="path122"
         inkscape:connector-curvature="0" /></clipPath><linearGradient
       x1="0"
       y1="0"
       x2="1"
       y2="0"
       gradientUnits="userSpaceOnUse"
       gradientTransform="matrix(36.21141,13.429718,13.429718,-36.21141,6920.0547,7239.562)"
       spreadMethod="pad"
       id="linearGradient128"><stop
         style="stop-opacity:1;stop-color:#7aa13d"
         offset="0"
         id="stop130" /><stop
         style="stop-opacity:1;stop-color:#00505c"
         offset="1"
         id="stop132" /></linearGradient><clipPath
       clipPathUnits="userSpaceOnUse"
       id="clipPath140"><path
         d="m 6927.323,7223.231 c 0,-3.668 1.294,-6.758 3.957,-9.421 l 0,0 0.073,0 0,-0.073 c 2.515,-2.515 5.608,-3.809 9.204,-3.809 l 0,0 c 2.949,0 5.537,-1.08 7.622,-3.165 l 0,0 c 2.078,-2.075 3.155,-4.652 3.166,-7.582 l 0,0 c 0,0.014 0,0.028 0,0.043 l 0,0 c 0,2.949 -1.081,5.54 -3.166,7.625 l 0,0 c -2.085,2.086 -4.673,3.162 -7.622,3.162 l 0,0 c -3.596,0 -6.689,1.294 -9.204,3.813 l 0,0 0,0.069 -0.073,0 c -2.653,2.652 -3.943,5.732 -3.953,9.381 l 0,0 c 0,-0.014 0,-0.028 0,-0.043"
         id="path142"
         inkscape:connector-curvature="0" /></clipPath><linearGradient
       x1="0"
       y1="0"
       x2="1"
       y2="0"
       gradientUnits="userSpaceOnUse"
       gradientTransform="matrix(36.212555,13.430145,13.430145,-36.212555,6931.6235,7208.3687)"
       spreadMethod="pad"
       id="linearGradient148"><stop
         style="stop-opacity:1;stop-color:#7aa13d"
         offset="0"
         id="stop150" /><stop
         style="stop-opacity:1;stop-color:#00505c"
         offset="1"
         id="stop152" /></linearGradient><clipPath
       clipPathUnits="userSpaceOnUse"
       id="clipPath160"><path
         d="m 0,14400 14400,0 L 14400,0 0,0 0,14400 z"
         id="path162"
         inkscape:connector-curvature="0" /></clipPath><clipPath
       clipPathUnits="userSpaceOnUse"
       id="clipPath172"><path
         d="m 6918.461,7249.953 c -0.802,-0.691 -1.593,-1.417 -2.356,-2.198 l 0,0 c -0.072,0 -0.072,0 -0.144,-0.072 l 0,0 c -6.823,-6.82 -10.199,-14.933 -10.21,-24.409 l 0,0 c 0.011,-9.547 3.459,-17.733 10.282,-24.628 l 0,0 c 6.758,-6.831 14.958,-10.21 24.524,-10.21 l 0,0 c 2.949,0 5.537,1.077 7.622,3.166 l 0,0 c 2.078,2.074 3.155,4.651 3.166,7.579 l 0,0 c -0.011,2.93 -1.088,5.507 -3.166,7.582 l 0,0 c -2.085,2.085 -4.673,3.165 -7.622,3.165 l 0,0 c -3.596,0 -6.689,1.294 -9.204,3.809 l 0,0 0,0.073 -0.073,0 c -2.663,2.663 -3.957,5.753 -3.957,9.421 l 0,0 c 0,0.015 0,0.029 0,0.043 l 0,0 c 0,0.015 0,0.026 0,0.04 l 0,0 c 0,3.596 1.294,6.689 3.957,9.208 l 0,0 0.073,0.073 0,0.069 c 2.515,2.591 5.608,3.884 9.204,3.884 l 0,0 c 3.668,0 6.762,-1.293 9.422,-3.953 l 0,0 c 1.503,-1.504 2.529,-3.188 3.158,-5.031 l 0,0 c 0.083,-0.238 0.163,-0.473 0.232,-0.715 l 0,0 c 0.025,-0.094 0.065,-0.178 0.086,-0.271 l 0,0 c -1.241,8.4 -5.809,30.134 -19.782,30.134 l 0,0 c -4.176,10e-4 -9.193,-1.941 -15.212,-6.759"
         id="path174"
         inkscape:connector-curvature="0" /></clipPath><linearGradient
       x1="0"
       y1="0"
       x2="1"
       y2="0"
       gradientUnits="userSpaceOnUse"
       gradientTransform="matrix(36.211838,13.429871,13.429871,-36.211822,6927.6099,7219.1914)"
       spreadMethod="pad"
       id="linearGradient180"><stop
         style="stop-opacity:1;stop-color:#7aa13d"
         offset="0"
         id="stop182" /><stop
         style="stop-opacity:1;stop-color:#00505c"
         offset="1"
         id="stop184" /></linearGradient><clipPath
       clipPathUnits="userSpaceOnUse"
       id="clipPath192"><path
         d="m 0,14400 14400,0 L 14400,0 0,0 0,14400 z"
         id="path194"
         inkscape:connector-curvature="0" /></clipPath><linearGradient
       inkscape:collect="always"
       xlink:href="#linearGradient72"
       id="linearGradient3216"
       gradientUnits="userSpaceOnUse"
       gradientTransform="matrix(-36.213135,-13.430344,-13.430344,36.213135,7001.6875,7179.2422)"
       spreadMethod="pad"
       x1="0"
       y1="0"
       x2="1"
       y2="0" /><linearGradient
       inkscape:collect="always"
       xlink:href="#linearGradient108"
       id="linearGradient3218"
       gradientUnits="userSpaceOnUse"
       gradientTransform="matrix(35.461395,13.15155,13.15155,-35.461395,6928.6191,7218.0698)"
       spreadMethod="pad"
       x1="0"
       y1="0"
       x2="1"
       y2="0" /><linearGradient
       inkscape:collect="always"
       xlink:href="#linearGradient128"
       id="linearGradient3220"
       gradientUnits="userSpaceOnUse"
       gradientTransform="matrix(36.21141,13.429718,13.429718,-36.21141,6920.0547,7239.562)"
       spreadMethod="pad"
       x1="0"
       y1="0"
       x2="1"
       y2="0" /><linearGradient
       inkscape:collect="always"
       xlink:href="#linearGradient148"
       id="linearGradient3222"
       gradientUnits="userSpaceOnUse"
       gradientTransform="matrix(36.212555,13.430145,13.430145,-36.212555,6931.6235,7208.3687)"
       spreadMethod="pad"
       x1="0"
       y1="0"
       x2="1"
       y2="0" /><linearGradient
       inkscape:collect="always"
       xlink:href="#linearGradient180"
       id="linearGradient3224"
       gradientUnits="userSpaceOnUse"
       gradientTransform="matrix(36.211838,13.429871,13.429871,-36.211822,6927.6099,7219.1914)"
       spreadMethod="pad"
       x1="0"
       y1="0"
       x2="1"
       y2="0" /></defs><sodipodi:namedview
     pagecolor="#ffffff"
     bordercolor="#666666"
     borderopacity="1"
     objecttolerance="10"
     gridtolerance="10"
     guidetolerance="10"
     inkscape:pageopacity="0"
     inkscape:pageshadow="2"
     inkscape:window-width="1600"
     inkscape:window-height="876"
     id="namedview4"
     showgrid="false"
     inkscape:zoom="1.1087434"
     inkscape:cx="132.29577"
     inkscape:cy="229.21996"
     inkscape:window-x="0"
     inkscape:window-y="24"
     inkscape:window-maximized="1"
     inkscape:current-layer="g10" /><g
     id="g10"
     inkscape:groupmode="layer"
     inkscape:label="logo-beansight_def"
     transform="matrix(1.25,0,0,-1.25,-8500.625,8824.375)"><g
       id="g3175"
       transform="matrix(1.0858032,0,0,1.0858032,-587.72281,-603.9208)"><g
         transform="translate(-86.584504,-215.01818)"
         id="g60"><g
           clip-path="url(#clipPath64)"
           id="g62"><g
             id="g68"><g
               id="g70"><path
                 inkscape:connector-curvature="0"
                 id="path78"
                 style="fill:url(#linearGradient3216);stroke:none"
                 d="m 6981.116,7206.835 c -2.089,-2.085 -3.165,-4.677 -3.165,-7.622 l 0,0 c 0,-2.949 1.076,-5.54 3.165,-7.626 l 0,0 c 2.082,-2.085 4.673,-3.165 7.622,-3.165 l 0,0 c 3.596,0 6.686,-1.29 9.205,-3.809 l 0,0 0,-0.072 0.072,0 c 2.66,-2.66 3.957,-5.754 3.957,-9.422 l 0,0 c 0,-3.596 -1.297,-6.689 -3.957,-9.205 l 0,0 -0.072,-0.072 0,-0.072 c -2.519,-2.591 -5.609,-3.882 -9.205,-3.882 l 0,0 c -3.668,0 -6.761,1.291 -9.422,3.954 l 0,0 c -1.767,1.767 -2.92,3.777 -3.48,6.017 l 0,0 c 1.626,-11.004 8.959,-44.896 35.659,-22.843 l 0,0 c 0.571,0.516 1.146,1.019 1.695,1.579 l 0,0 c 0.072,0 0.072,0 0.144,0.072 l 0,0 c 6.831,6.834 10.213,14.958 10.213,24.452 l 0,0 c 0,9.566 -3.455,17.766 -10.285,24.669 l 0,0 c -6.762,6.834 -14.958,10.209 -24.524,10.209 l 0,0 c -2.949,0 -5.54,-1.077 -7.622,-3.162" /></g></g></g></g><g
         transform="translate(-86.584504,-215.01818)"
         id="g80"><g
           clip-path="url(#clipPath84)"
           id="g82"><g
             transform="translate(6940.5576,7188.4375)"
             id="g88"><path
               inkscape:connector-curvature="0"
               id="path90"
               style="fill:#7aa13d;fill-opacity:1;fill-rule:nonzero;stroke:none"
               d="m 0,0 c -9.565,0 -17.765,3.378 -24.524,10.21 -6.822,6.895 -10.273,15.08 -10.283,24.626 0,-0.014 -0.002,-0.028 -0.002,-0.042 0,-9.565 3.453,-17.762 10.285,-24.668 C -17.764,3.294 -9.565,-0.085 0,-0.085 c 2.949,0 5.538,1.077 7.623,3.165 2.085,2.085 3.165,4.674 3.165,7.623 0,0.014 -0.002,0.027 -0.002,0.041 C 10.776,7.814 9.699,5.24 7.623,3.164 5.538,1.076 2.948,0 0,0" /></g><g
             transform="translate(6940.5576,7236.5488)"
             id="g92"><path
               inkscape:connector-curvature="0"
               id="path94"
               style="fill:#7aa13d;fill-opacity:1;fill-rule:nonzero;stroke:none"
               d="m 0,0 c -3.596,0 -6.689,-1.294 -9.206,-3.884 l 0,-0.07 -0.071,-0.073 c -2.662,-2.517 -3.956,-5.61 -3.956,-9.206 0,-0.014 0.002,-0.028 0.002,-0.042 0.01,3.578 1.303,6.656 3.954,9.163 l 0.071,0.073 0,0.071 c 2.518,2.59 5.61,3.885 9.206,3.885 3.667,0 6.76,-1.295 9.421,-3.956 1.482,-1.482 2.524,-3.135 3.158,-4.947 -0.627,1.843 -1.656,3.529 -3.159,5.032 C 6.76,-1.294 3.667,0 0,0" /></g></g></g><g
         transform="translate(-86.584504,-215.01818)"
         id="g96"><g
           clip-path="url(#clipPath100)"
           id="g98"><g
             id="g104"><g
               id="g106"><path
                 inkscape:connector-curvature="0"
                 id="path114"
                 style="fill:url(#linearGradient3218);stroke:none"
                 d="m 6953.258,7227.208 c -0.039,0.119 -0.079,0.237 -0.121,0.356 l 0,0 c 0.04,-0.119 0.082,-0.237 0.121,-0.356 m 0.111,-0.359 c -0.033,0.121 -0.071,0.24 -0.111,0.359 l 0,0 c 0.039,-0.119 0.076,-0.238 0.111,-0.359" /></g></g></g></g><g
         transform="translate(-86.584504,-215.01818)"
         id="g116"><g
           clip-path="url(#clipPath120)"
           id="g118"><g
             id="g124"><g
               id="g126"><path
                 inkscape:connector-curvature="0"
                 id="path134"
                 style="fill:url(#linearGradient3220);stroke:none"
                 d="m 6917.8,7249.421 c -0.571,-0.517 -1.145,-1.019 -1.695,-1.579 l 0,0 c -0.072,0 -0.072,0 -0.144,-0.076 l 0,0 c -6.834,-6.83 -10.213,-14.958 -10.213,-24.452 l 0,0 c 0,-0.014 0,-0.025 0,-0.04 l 0,0 c 0.011,9.476 3.387,17.589 10.21,24.409 l 0,0 c 0.072,0.072 0.072,0.072 0.144,0.072 l 0,0 c 0.763,0.781 1.554,1.507 2.356,2.198 l 0,0 c -0.22,-0.178 -0.437,-0.348 -0.661,-0.532" /></g></g></g></g><g
         transform="translate(-86.584504,-215.01818)"
         id="g136"><g
           clip-path="url(#clipPath140)"
           id="g138"><g
             id="g144"><g
               id="g146"><path
                 inkscape:connector-curvature="0"
                 id="path154"
                 style="fill:url(#linearGradient3222);stroke:none"
                 d="m 6927.323,7223.231 c 0,-3.668 1.294,-6.758 3.957,-9.421 l 0,0 0.073,0 0,-0.073 c 2.515,-2.515 5.608,-3.809 9.204,-3.809 l 0,0 c 2.949,0 5.537,-1.08 7.622,-3.165 l 0,0 c 2.078,-2.075 3.155,-4.652 3.166,-7.582 l 0,0 c 0,0.014 0,0.028 0,0.043 l 0,0 c 0,2.949 -1.081,5.54 -3.166,7.625 l 0,0 c -2.085,2.086 -4.673,3.162 -7.622,3.162 l 0,0 c -3.596,0 -6.689,1.294 -9.204,3.813 l 0,0 0,0.069 -0.073,0 c -2.653,2.652 -3.943,5.732 -3.953,9.381 l 0,0 c 0,-0.014 0,-0.028 0,-0.043" /></g></g></g></g><g
         transform="translate(-86.584504,-215.01818)"
         id="g156"><g
           clip-path="url(#clipPath160)"
           id="g158"><g
             transform="translate(6918.4634,7249.9536)"
             id="g164"><path
               inkscape:connector-curvature="0"
               id="path166"
               style="fill:#7aa13d;fill-opacity:1;fill-rule:nonzero;stroke:none"
               d="m 0,0 c -0.804,-0.692 -1.594,-1.417 -2.358,-2.198 -0.072,0 -0.072,0 -0.144,-0.071 -6.822,-6.822 -10.201,-14.936 -10.21,-24.411 0.009,-9.547 3.461,-17.731 10.282,-24.626 6.76,-6.832 14.959,-10.21 24.524,-10.21 2.948,0 5.538,1.076 7.623,3.164 2.076,2.076 3.153,4.65 3.163,7.58 -0.01,2.931 -1.087,5.506 -3.163,7.582 -2.085,2.085 -4.674,3.164 -7.623,3.164 -3.596,0 -6.688,1.295 -9.205,3.811 l 0,0.072 -0.072,0 c -2.662,2.661 -3.956,5.754 -3.956,9.421 0,0.014 0.002,0.028 0.002,0.042 0,0.014 -0.002,0.028 -0.002,0.042 0,3.596 1.294,6.689 3.956,9.206 l 0.072,0.073 0,0.07 c 2.516,2.59 5.609,3.884 9.205,3.884 3.668,0 6.76,-1.294 9.421,-3.954 1.503,-1.502 2.531,-3.188 3.158,-5.032 0.083,-0.236 0.165,-0.472 0.233,-0.714 0.025,-0.093 0.065,-0.178 0.088,-0.271 C 33.38,-12.465 26.157,20.94 0,0" /></g></g></g><g
         transform="translate(-86.584504,-215.01818)"
         id="g168"><g
           clip-path="url(#clipPath172)"
           id="g170"><g
             id="g176"><g
               id="g178"><path
                 inkscape:connector-curvature="0"
                 id="path186"
                 style="fill:url(#linearGradient3224);stroke:none"
                 d="m 6918.461,7249.953 c -0.802,-0.691 -1.593,-1.417 -2.356,-2.198 l 0,0 c -0.072,0 -0.072,0 -0.144,-0.072 l 0,0 c -6.823,-6.82 -10.199,-14.933 -10.21,-24.409 l 0,0 c 0.011,-9.547 3.459,-17.733 10.282,-24.628 l 0,0 c 6.758,-6.831 14.958,-10.21 24.524,-10.21 l 0,0 c 2.949,0 5.537,1.077 7.622,3.166 l 0,0 c 2.078,2.074 3.155,4.651 3.166,7.579 l 0,0 c -0.011,2.93 -1.088,5.507 -3.166,7.582 l 0,0 c -2.085,2.085 -4.673,3.165 -7.622,3.165 l 0,0 c -3.596,0 -6.689,1.294 -9.204,3.809 l 0,0 0,0.073 -0.073,0 c -2.663,2.663 -3.957,5.753 -3.957,9.421 l 0,0 c 0,0.015 0,0.029 0,0.043 l 0,0 c 0,0.015 0,0.026 0,0.04 l 0,0 c 0,3.596 1.294,6.689 3.957,9.208 l 0,0 0.073,0.073 0,0.069 c 2.515,2.591 5.608,3.884 9.204,3.884 l 0,0 c 3.668,0 6.762,-1.293 9.422,-3.953 l 0,0 c 1.503,-1.504 2.529,-3.188 3.158,-5.031 l 0,0 c 0.083,-0.238 0.163,-0.473 0.232,-0.715 l 0,0 c 0.025,-0.094 0.065,-0.178 0.086,-0.271 l 0,0 c -1.241,8.4 -5.809,30.134 -19.782,30.134 l 0,0 c -4.176,10e-4 -9.193,-1.941 -15.212,-6.759" /></g></g></g></g><g
         transform="translate(-86.584504,-215.01818)"
         id="g188"><g
           clip-path="url(#clipPath192)"
           id="g190"><g
             transform="translate(6975.8379,7171.8584)"
             id="g196"><path
               inkscape:connector-curvature="0"
               id="path198"
               style="fill:#7aa13d;fill-opacity:1;fill-rule:nonzero;stroke:none"
               d="m 0,0 c -0.26,1.039 -0.405,2.122 -0.405,3.261 l 0,23.929 c 0,0.031 0.005,0.061 0.005,0.092 l 0,6.738 0,17.353 c 0,9.565 -3.381,17.692 -10.213,24.524 -6.832,6.833 -15.102,10.285 -24.667,10.285 -8.472,0 -15.867,-2.721 -22.095,-8.087 26.157,20.941 33.38,-12.465 34.994,-23.376 -0.023,0.093 -0.062,0.178 -0.087,0.271 0.322,-1.144 0.492,-2.348 0.492,-3.617 l 0,-23.928 c 0,-0.031 -0.004,-0.061 -0.004,-0.091 l 0,-24.093 c 0,-9.565 3.38,-17.693 10.212,-24.525 6.832,-6.832 15.102,-10.283 24.668,-10.283 8.78,0 16.392,2.943 22.758,8.704 C 8.956,-44.894 1.626,-11.004 0,0" /></g></g></g></g></g></svg>