<?xml version="1.0" encoding="UTF-8" standalone="no"?>
<!-- Created with Inkscape (http://www.inkscape.org/) -->

<svg
   xmlns:dc="http://purl.org/dc/elements/1.1/"
   xmlns:cc="http://creativecommons.org/ns#"
   xmlns:rdf="http://www.w3.org/1999/02/22-rdf-syntax-ns#"
   xmlns:svg="http://www.w3.org/2000/svg"
   xmlns="http://www.w3.org/2000/svg"
   xmlns:xlink="http://www.w3.org/1999/xlink"
   xmlns:sodipodi="http://sodipodi.sourceforge.net/DTD/sodipodi-0.dtd"
   xmlns:inkscape="http://www.inkscape.org/namespaces/inkscape"
   width="440"
   height="280"
   id="svg2"
   version="1.1"
   inkscape:version="0.48.1 r9760"
   sodipodi:docname="promotion_small.svg"
   inkscape:export-filename="/home/steren/WIP/Beansight/Design/Chrome store/promotion_small.png"
   inkscape:export-xdpi="90"
   inkscape:export-ydpi="90">
  <defs
     id="defs4">
    <clipPath
       id="clipPath16"
       clipPathUnits="userSpaceOnUse">
      <path
         inkscape:connector-curvature="0"
         id="path18"
         d="m 0,14400 14400,0 L 14400,0 0,0 0,14400 z" />
    </clipPath>
    <clipPath
       id="clipPath64"
       clipPathUnits="userSpaceOnUse">
      <path
         inkscape:connector-curvature="0"
         id="path66"
         d="m 6981.116,7206.835 c -2.089,-2.085 -3.165,-4.677 -3.165,-7.622 l 0,0 c 0,-2.949 1.076,-5.54 3.165,-7.626 l 0,0 c 2.082,-2.085 4.673,-3.165 7.622,-3.165 l 0,0 c 3.596,0 6.686,-1.29 9.205,-3.809 l 0,0 0,-0.072 0.072,0 c 2.66,-2.66 3.957,-5.754 3.957,-9.422 l 0,0 c 0,-3.596 -1.297,-6.689 -3.957,-9.205 l 0,0 -0.072,-0.072 0,-0.072 c -2.519,-2.591 -5.609,-3.882 -9.205,-3.882 l 0,0 c -3.668,0 -6.761,1.291 -9.422,3.954 l 0,0 c -1.767,1.767 -2.92,3.777 -3.48,6.017 l 0,0 c 1.626,-11.004 8.959,-44.896 35.659,-22.843 l 0,0 c 0.571,0.516 1.146,1.019 1.695,1.579 l 0,0 c 0.072,0 0.072,0 0.144,0.072 l 0,0 c 6.831,6.834 10.213,14.958 10.213,24.452 l 0,0 c 0,9.566 -3.455,17.766 -10.285,24.669 l 0,0 c -6.762,6.834 -14.958,10.209 -24.524,10.209 l 0,0 c -2.949,0 -5.54,-1.077 -7.622,-3.162" />
    </clipPath>
    <linearGradient
       id="linearGradient72"
       spreadMethod="pad"
       gradientTransform="matrix(-36.213135,-13.430344,-13.430344,36.213135,7001.6875,7179.2422)"
       gradientUnits="userSpaceOnUse"
       y2="0"
       x2="1"
       y1="0"
       x1="0">
      <stop
         id="stop74"
         offset="0"
         style="stop-opacity:1;stop-color:#7aa13d" />
      <stop
         id="stop76"
         offset="1"
         style="stop-opacity:1;stop-color:#00505c" />
    </linearGradient>
    <clipPath
       id="clipPath84"
       clipPathUnits="userSpaceOnUse">
      <path
         inkscape:connector-curvature="0"
         id="path86"
         d="m 0,14400 14400,0 L 14400,0 0,0 0,14400 z" />
    </clipPath>
    <clipPath
       id="clipPath100"
       clipPathUnits="userSpaceOnUse">
      <path
         inkscape:connector-curvature="0"
         id="path102"
         d="m 6953.258,7227.208 c -0.039,0.119 -0.079,0.237 -0.121,0.356 l 0,0 c 0.04,-0.119 0.082,-0.237 0.121,-0.356 m 0.111,-0.359 c -0.033,0.121 -0.071,0.24 -0.111,0.359 l 0,0 c 0.039,-0.119 0.076,-0.238 0.111,-0.359" />
    </clipPath>
    <linearGradient
       id="linearGradient108"
       spreadMethod="pad"
       gradientTransform="matrix(35.461395,13.15155,13.15155,-35.461395,6928.6191,7218.0698)"
       gradientUnits="userSpaceOnUse"
       y2="0"
       x2="1"
       y1="0"
       x1="0">
      <stop
         id="stop110"
         offset="0"
         style="stop-opacity:1;stop-color:#7aa13d" />
      <stop
         id="stop112"
         offset="1"
         style="stop-opacity:1;stop-color:#00505c" />
    </linearGradient>
    <clipPath
       id="clipPath120"
       clipPathUnits="userSpaceOnUse">
      <path
         inkscape:connector-curvature="0"
         id="path122"
         d="m 6917.8,7249.421 c -0.571,-0.517 -1.145,-1.019 -1.695,-1.579 l 0,0 c -0.072,0 -0.072,0 -0.144,-0.076 l 0,0 c -6.834,-6.83 -10.213,-14.958 -10.213,-24.452 l 0,0 c 0,-0.014 0,-0.025 0,-0.04 l 0,0 c 0.011,9.476 3.387,17.589 10.21,24.409 l 0,0 c 0.072,0.072 0.072,0.072 0.144,0.072 l 0,0 c 0.763,0.781 1.554,1.507 2.356,2.198 l 0,0 c -0.22,-0.178 -0.437,-0.348 -0.661,-0.532" />
    </clipPath>
    <linearGradient
       id="linearGradient128"
       spreadMethod="pad"
       gradientTransform="matrix(36.21141,13.429718,13.429718,-36.21141,6920.0547,7239.562)"
       gradientUnits="userSpaceOnUse"
       y2="0"
       x2="1"
       y1="0"
       x1="0">
      <stop
         id="stop130"
         offset="0"
         style="stop-opacity:1;stop-color:#7aa13d" />
      <stop
         id="stop132"
         offset="1"
         style="stop-opacity:1;stop-color:#00505c" />
    </linearGradient>
    <clipPath
       id="clipPath140"
       clipPathUnits="userSpaceOnUse">
      <path
         inkscape:connector-curvature="0"
         id="path142"
         d="m 6927.323,7223.231 c 0,-3.668 1.294,-6.758 3.957,-9.421 l 0,0 0.073,0 0,-0.073 c 2.515,-2.515 5.608,-3.809 9.204,-3.809 l 0,0 c 2.949,0 5.537,-1.08 7.622,-3.165 l 0,0 c 2.078,-2.075 3.155,-4.652 3.166,-7.582 l 0,0 c 0,0.014 0,0.028 0,0.043 l 0,0 c 0,2.949 -1.081,5.54 -3.166,7.625 l 0,0 c -2.085,2.086 -4.673,3.162 -7.622,3.162 l 0,0 c -3.596,0 -6.689,1.294 -9.204,3.813 l 0,0 0,0.069 -0.073,0 c -2.653,2.652 -3.943,5.732 -3.953,9.381 l 0,0 c 0,-0.014 0,-0.028 0,-0.043" />
    </clipPath>
    <linearGradient
       id="linearGradient148"
       spreadMethod="pad"
       gradientTransform="matrix(36.212555,13.430145,13.430145,-36.212555,6931.6235,7208.3687)"
       gradientUnits="userSpaceOnUse"
       y2="0"
       x2="1"
       y1="0"
       x1="0">
      <stop
         id="stop150"
         offset="0"
         style="stop-opacity:1;stop-color:#7aa13d" />
      <stop
         id="stop152"
         offset="1"
         style="stop-opacity:1;stop-color:#00505c" />
    </linearGradient>
    <clipPath
       id="clipPath160"
       clipPathUnits="userSpaceOnUse">
      <path
         inkscape:connector-curvature="0"
         id="path162"
         d="m 0,14400 14400,0 L 14400,0 0,0 0,14400 z" />
    </clipPath>
    <clipPath
       id="clipPath172"
       clipPathUnits="userSpaceOnUse">
      <path
         inkscape:connector-curvature="0"
         id="path174"
         d="m 6918.461,7249.953 c -0.802,-0.691 -1.593,-1.417 -2.356,-2.198 l 0,0 c -0.072,0 -0.072,0 -0.144,-0.072 l 0,0 c -6.823,-6.82 -10.199,-14.933 -10.21,-24.409 l 0,0 c 0.011,-9.547 3.459,-17.733 10.282,-24.628 l 0,0 c 6.758,-6.831 14.958,-10.21 24.524,-10.21 l 0,0 c 2.949,0 5.537,1.077 7.622,3.166 l 0,0 c 2.078,2.074 3.155,4.651 3.166,7.579 l 0,0 c -0.011,2.93 -1.088,5.507 -3.166,7.582 l 0,0 c -2.085,2.085 -4.673,3.165 -7.622,3.165 l 0,0 c -3.596,0 -6.689,1.294 -9.204,3.809 l 0,0 0,0.073 -0.073,0 c -2.663,2.663 -3.957,5.753 -3.957,9.421 l 0,0 c 0,0.015 0,0.029 0,0.043 l 0,0 c 0,0.015 0,0.026 0,0.04 l 0,0 c 0,3.596 1.294,6.689 3.957,9.208 l 0,0 0.073,0.073 0,0.069 c 2.515,2.591 5.608,3.884 9.204,3.884 l 0,0 c 3.668,0 6.762,-1.293 9.422,-3.953 l 0,0 c 1.503,-1.504 2.529,-3.188 3.158,-5.031 l 0,0 c 0.083,-0.238 0.163,-0.473 0.232,-0.715 l 0,0 c 0.025,-0.094 0.065,-0.178 0.086,-0.271 l 0,0 c -1.241,8.4 -5.809,30.134 -19.782,30.134 l 0,0 c -4.176,10e-4 -9.193,-1.941 -15.212,-6.759" />
    </clipPath>
    <linearGradient
       id="linearGradient180"
       spreadMethod="pad"
       gradientTransform="matrix(36.211838,13.429871,13.429871,-36.211822,6927.6099,7219.1914)"
       gradientUnits="userSpaceOnUse"
       y2="0"
       x2="1"
       y1="0"
       x1="0">
      <stop
         id="stop182"
         offset="0"
         style="stop-opacity:1;stop-color:#7aa13d" />
      <stop
         id="stop184"
         offset="1"
         style="stop-opacity:1;stop-color:#00505c" />
    </linearGradient>
    <clipPath
       id="clipPath192"
       clipPathUnits="userSpaceOnUse">
      <path
         inkscape:connector-curvature="0"
         id="path194"
         d="m 0,14400 14400,0 L 14400,0 0,0 0,14400 z" />
    </clipPath>
    <linearGradient
       inkscape:collect="always"
       xlink:href="#linearGradient72"
       id="linearGradient3146"
       gradientUnits="userSpaceOnUse"
       gradientTransform="matrix(-36.213135,-13.430344,-13.430344,36.213135,7001.6875,7179.2422)"
       spreadMethod="pad"
       x1="0"
       y1="0"
       x2="1"
       y2="0" />
    <linearGradient
       inkscape:collect="always"
       xlink:href="#linearGradient108"
       id="linearGradient3148"
       gradientUnits="userSpaceOnUse"
       gradientTransform="matrix(35.461395,13.15155,13.15155,-35.461395,6928.6191,7218.0698)"
       spreadMethod="pad"
       x1="0"
       y1="0"
       x2="1"
       y2="0" />
    <linearGradient
       inkscape:collect="always"
       xlink:href="#linearGradient128"
       id="linearGradient3150"
       gradientUnits="userSpaceOnUse"
       gradientTransform="matrix(36.21141,13.429718,13.429718,-36.21141,6920.0547,7239.562)"
       spreadMethod="pad"
       x1="0"
       y1="0"
       x2="1"
       y2="0" />
    <linearGradient
       inkscape:collect="always"
       xlink:href="#linearGradient148"
       id="linearGradient3152"
       gradientUnits="userSpaceOnUse"
       gradientTransform="matrix(36.212555,13.430145,13.430145,-36.212555,6931.6235,7208.3687)"
       spreadMethod="pad"
       x1="0"
       y1="0"
       x2="1"
       y2="0" />
    <linearGradient
       inkscape:collect="always"
       xlink:href="#linearGradient180"
       id="linearGradient3154"
       gradientUnits="userSpaceOnUse"
       gradientTransform="matrix(36.211838,13.429871,13.429871,-36.211822,6927.6099,7219.1914)"
       spreadMethod="pad"
       x1="0"
       y1="0"
       x2="1"
       y2="0" />
  </defs>
  <sodipodi:namedview
     id="base"
     pagecolor="#ffffff"
     bordercolor="#666666"
     borderopacity="1.0"
     inkscape:pageopacity="0.0"
     inkscape:pageshadow="2"
     inkscape:zoom="1"
     inkscape:cx="194.64873"
     inkscape:cy="111.36991"
     inkscape:document-units="px"
     inkscape:current-layer="layer2"
     showgrid="false"
     inkscape:window-width="1600"
     inkscape:window-height="876"
     inkscape:window-x="0"
     inkscape:window-y="24"
     inkscape:window-maximized="1"
     borderlayer="true" />
  <metadata
     id="metadata7">
    <rdf:RDF>
      <cc:Work
         rdf:about="">
        <dc:format>image/svg+xml</dc:format>
        <dc:type
           rdf:resource="http://purl.org/dc/dcmitype/StillImage" />
        <dc:title />
      </cc:Work>
    </rdf:RDF>
  </metadata>
  <g
     inkscape:label="Calque 1"
     inkscape:groupmode="layer"
     id="layer1"
     transform="translate(0,-772.36218)">
    <rect
       style="fill:#ededed;fill-opacity:1;stroke:none"
       id="rect3241"
       width="461.43161"
       height="296.37875"
       x="-8.7380428"
       y="768.72418" />
  </g>
  <g
     inkscape:groupmode="layer"
     id="layer2"
     inkscape:label="courbe">
    <g
       id="g4151"
       transform="matrix(1,0,0,0.97338432,10.5,343.33652)"
       style="opacity:0.3">
      <g
         id="g4147">
        <path
           inkscape:connector-curvature="0"
           id="path3331"
           d="m -9.8994947,-155.57777 -0.7071063,-47.7297 7.4246206,-36.94633 15.7331254,-2.65165 24.218407,98.28784 57.805978,23.68808 14.49569,-47.72971 18.56155,-24.04163 22.45064,36.94633 c 0,0 27.57716,33.76435 27.75394,31.99658 0.17678,-1.76777 1.59099,-19.09188 1.94454,-20.32932 0.35356,-1.23744 11.66727,-16.44023 11.66727,-16.44023 l 6.89429,12.72792 4.06586,-11.66726 1.23744,7.07106 2.47487,-5.65685 0.70711,15.2028 9.54594,10.6066 2.12132,-7.07107 13.08147,8.3085 3.00521,-5.65685 0.53033,-10.96015 11.49048,-11.49049 4.77297,5.12652 5.65686,-4.59619 2.12132,9.01561 9.36916,2.65165 0.35356,-10.96015 3.18198,1.06066 1.23743,5.83363 8.48529,1.23743 4.94974,-5.65685 16.61701,4.59619 c 0,0 1.94454,3.18199 2.12132,2.47488 0.17678,-0.70711 4.06587,-6.36396 4.06587,-6.36396 l 3.53553,3.53553 7.42462,10.42983 5.12652,5.65685 6.18719,1.23744 6.01041,2.12132 6.89429,4.41941 6.71751,-2.29809 9.19239,3.0052 12.37437,0.17678 12.55114,1.59099 16.08668,5.65685 10.6066,3.71231 8.83884,2.47488 8.13173,3.18198 2.65165,-0.17678 c 0,39.469389 0,42.469389 0,42.469389 l -442.36546,0 z"
           style="opacity:0.5;fill:#7aa13d;fill-opacity:1;stroke:none" />
        <path
           style="fill:none;stroke:#00505c;stroke-width:1.01357952;stroke-linecap:butt;stroke-linejoin:miter;stroke-opacity:1;stroke-miterlimit:4;stroke-dasharray:none"
           d="m -9.8994947,-155.57777 -0.7071063,-47.7297 7.4246206,-36.94633 15.7331254,-2.65165 24.218407,98.28784 57.805978,23.68808 14.49569,-47.72971 18.56155,-24.04163 22.45064,36.94633 c 0,0 27.57716,33.76435 27.75394,31.99658 0.17678,-1.76777 1.59099,-19.09188 1.94454,-20.32932 0.35356,-1.23744 11.66727,-16.44023 11.66727,-16.44023 l 6.89429,12.72792 4.06586,-11.66726 1.23744,7.07106 2.47487,-5.65685 0.70711,15.2028 9.54594,10.6066 2.12132,-7.07107 13.08147,8.3085 3.00521,-5.65685 0.53033,-10.96015 11.49048,-11.49049 4.77297,5.12652 5.65686,-4.59619 2.12132,9.01561 9.36916,2.65165 0.35356,-10.96015 3.18198,1.06066 1.23743,5.83363 8.48529,1.23743 4.94974,-5.65685 16.61701,4.59619 c 0,0 1.94454,3.18199 2.12132,2.47488 0.17678,-0.70711 4.06587,-6.36396 4.06587,-6.36396 l 3.53553,3.53553 7.42462,10.42983 5.12652,5.65685 6.18719,1.23744 6.01041,2.12132 6.89429,4.41941 6.71751,-2.29809 9.19239,3.0052 12.37437,0.17678 12.55114,1.59099 16.08668,5.65685 10.6066,3.71231 8.83884,2.47488 8.13173,3.18198 2.65165,-0.17678"
           id="path3163"
           inkscape:connector-curvature="0" />
      </g>
    </g>
  </g>
  <g
     inkscape:groupmode="layer"
     id="layer4"
     inkscape:label="grille"
     style="display:inline">
    <g
       transform="matrix(1,0,0,0.97338432,10.5,343.33652)"
       style="opacity:0.08"
       id="g4129">
      <g
         id="g4111">
        <g
           id="g4106">
          <path
             style="fill:none;stroke:#000000;stroke-width:1.01357961000000008px;stroke-linecap:butt;stroke-linejoin:miter;stroke-opacity:1"
             d="m -10.960155,-154.87066 443.355945,0"
             id="path3299"
             inkscape:connector-curvature="0" />
          <path
             style="fill:none;stroke:#000000;stroke-width:1.01357961000000008px;stroke-linecap:butt;stroke-linejoin:miter;stroke-opacity:1"
             d="m -8.4852812,-243.259 438.7597512,0"
             id="path3301"
             inkscape:connector-curvature="0" />
          <path
             style="fill:none;stroke:#000000;stroke-width:1.01357961000000008px;stroke-linecap:butt;stroke-linejoin:miter;stroke-opacity:1"
             d="m -9.9999997,-67.499991 441.9999897,0"
             id="path3303"
             inkscape:connector-curvature="0" />
        </g>
        <g
           id="g4101">
          <path
             style="fill:none;stroke:#000000;stroke-width:1.01357961000000008px;stroke-linecap:butt;stroke-linejoin:miter;stroke-opacity:1"
             d="m 10.5,-62.499991 0,-186.499999"
             id="path3305"
             inkscape:connector-curvature="0" />
          <path
             style="fill:none;stroke:#000000;stroke-width:1.01357961000000008px;stroke-linecap:butt;stroke-linejoin:miter;stroke-opacity:1"
             d="m 152,-62.999991 0,-185.499999"
             id="path3307"
             inkscape:connector-curvature="0" />
          <path
             style="fill:none;stroke:#000000;stroke-width:1.01357961000000008px;stroke-linecap:butt;stroke-linejoin:miter;stroke-opacity:1"
             d="m 297.49999,-63.999991 0,-184.499999"
             id="path3309"
             inkscape:connector-curvature="0" />
        </g>
      </g>
      <g
         id="g4121">
        <text
           sodipodi:linespacing="125%"
           id="text3311"
           y="-248.99998"
           x="426.37109"
           style="font-size:14px;font-style:normal;font-variant:normal;font-weight:normal;font-stretch:normal;text-align:end;line-height:125%;letter-spacing:0px;word-spacing:0px;text-anchor:end;fill:#000000;fill-opacity:1;stroke:none;font-family:BIRTH OF A HERO;-inkscape-font-specification:BIRTH OF A HERO"
           xml:space="preserve"><tspan
             style="font-size:14px;font-style:normal;font-variant:normal;font-weight:normal;font-stretch:normal;text-align:end;text-anchor:end;font-family:Droid Sans;-inkscape-font-specification:Droid Sans"
             y="-248.99998"
             x="426.37109"
             id="tspan3313"
             sodipodi:role="line">100</tspan></text>
        <text
           xml:space="preserve"
           style="font-size:14px;font-style:normal;font-variant:normal;font-weight:normal;font-stretch:normal;text-align:end;line-height:125%;letter-spacing:0px;word-spacing:0px;text-anchor:end;fill:#000000;fill-opacity:1;stroke:none;font-family:BIRTH OF A HERO;-inkscape-font-specification:BIRTH OF A HERO"
           x="427.81445"
           y="-160.99998"
           id="text3315"
           sodipodi:linespacing="125%"><tspan
             id="tspan3321"
             sodipodi:role="line"
             x="427.81445"
             y="-160.99998"
             style="font-size:14px;font-style:normal;font-variant:normal;font-weight:normal;font-stretch:normal;text-align:end;text-anchor:end;font-family:Droid Sans;-inkscape-font-specification:Droid Sans">50</tspan></text>
        <text
           sodipodi:linespacing="125%"
           id="text3327"
           y="-70.999977"
           x="427.81445"
           style="font-size:14px;font-style:normal;font-variant:normal;font-weight:normal;font-stretch:normal;text-align:end;line-height:125%;letter-spacing:0px;word-spacing:0px;text-anchor:end;fill:#000000;fill-opacity:1;stroke:none;font-family:BIRTH OF A HERO;-inkscape-font-specification:BIRTH OF A HERO"
           xml:space="preserve"><tspan
             style="font-size:14px;font-style:normal;font-variant:normal;font-weight:normal;font-stretch:normal;text-align:end;text-anchor:end;font-family:Droid Sans;-inkscape-font-specification:Droid Sans"
             y="-70.999977"
             x="427.81445"
             sodipodi:role="line"
             id="tspan3329">0</tspan></text>
      </g>
    </g>
  </g>
  <g
     inkscape:groupmode="layer"
     id="layer5"
     inkscape:label="bouton" />
  <g
     inkscape:groupmode="layer"
     id="layer3"
     inkscape:label="titre">
    <g
       id="g3080"
       transform="matrix(0.92034176,0,0,0.92034176,123.4183,-789.73026)">
      <g
         id="g10"
         inkscape:label="logo-beansight_def"
         transform="matrix(0.73821009,0,0,-0.73821009,-5210.7553,6284.3529)">
        <g
           id="g12">
          <g
             id="g14"
             clip-path="url(#clipPath16)">
            <g
               id="g20"
               transform="translate(7372.2793,7210.4307)">
              <path
                 d="m 0,0 c 4.101,0 7.625,-1.51 10.573,-4.53 2.948,-2.805 4.387,-6.329 4.387,-10.502 0,-0.43 0,-0.863 -0.073,-1.293 -0.36,-3.524 -1.798,-6.545 -4.314,-9.064 L 10.5,-25.531 c -2.805,-2.806 -6.112,-4.244 -9.996,-4.388 l -1.007,0 c -0.216,0 -0.503,0.073 -0.72,0.144 l -0.142,0 c -3.525,0.289 -6.546,1.728 -9.134,4.244 -2.948,2.947 -4.388,6.401 -4.388,10.499 0,4.173 1.44,7.697 4.388,10.645 C -7.551,-1.438 -4.1,0 0,0 M 20.21,5.107 C 14.671,10.716 7.912,13.521 0,13.521 c -7.838,0 -14.526,-2.805 -20.063,-8.414 -5.61,-5.538 -8.415,-12.227 -8.415,-20.139 0,-7.838 2.805,-14.454 8.415,-19.993 4.89,-4.96 10.713,-7.765 17.475,-8.341 l 0,0.072 c 0.72,-0.072 1.439,-0.145 2.085,-0.145 l 1.079,0 0.217,0 c 5.177,0.073 9.851,1.511 14.094,4.172 l 0,-2.374 c 0,-4.097 -1.439,-7.622 -4.314,-10.5 C 7.625,-55.089 4.101,-56.527 0,-56.527 c -1.868,0 -3.451,-0.647 -4.746,-2.013 -1.366,-1.369 -2.013,-2.951 -2.013,-4.747 0,-1.942 0.647,-3.525 2.013,-4.89 1.295,-1.296 2.878,-1.942 4.746,-1.942 7.912,0 14.601,2.805 20.137,8.342 5.539,5.536 8.344,12.224 8.344,20.136 l 0,24.74 0,1.869 c 0,7.912 -2.735,14.601 -8.271,20.139"
                 style="fill:#7aa13d;fill-opacity:1;fill-rule:nonzero;stroke:none"
                 id="path22"
                 inkscape:connector-curvature="0" />
            </g>
            <g
               id="g24"
               transform="translate(7431.1807,7223.9512)">
              <path
                 d="m 0,0 c -4.244,0 -8.055,-0.935 -11.436,-2.732 l 0,16.468 c 0,1.87 -0.646,3.452 -2.012,4.819 -1.366,1.366 -2.948,2.014 -4.747,2.014 -1.942,0 -3.525,-0.648 -4.82,-2.014 -1.366,-1.367 -2.012,-2.949 -2.012,-4.819 l 0,-63.934 c 0,-1.869 0.646,-3.451 2.012,-4.747 1.295,-1.366 2.878,-2.015 4.82,-2.015 1.799,0 3.381,0.649 4.747,2.015 1.366,1.296 2.012,2.878 2.012,4.747 l 0,25.387 c 0.073,3.093 1.153,5.681 3.308,7.838 2.302,2.302 5.036,3.452 8.128,3.452 3.164,0 5.896,-1.15 8.127,-3.452 l 0.07,0 c 2.232,-2.229 3.382,-4.962 3.382,-8.126 l 0,-25.099 c 0,-1.869 0.646,-3.451 2.015,-4.747 1.222,-1.366 2.804,-2.015 4.744,-2.015 1.799,0 3.381,0.649 4.747,2.015 1.368,1.296 2.015,2.878 2.015,4.747 l 0,25.099 c 0,6.975 -2.446,12.873 -7.335,17.691 l 0,0.072 C 12.874,-2.444 6.976,0 0,0"
                 style="fill:#7aa13d;fill-opacity:1;fill-rule:nonzero;stroke:none"
                 id="path26"
                 inkscape:connector-curvature="0" />
            </g>
            <g
               id="g28"
               transform="translate(7470.8076,7238.4063)">
              <path
                 d="M 0,0 C -1.799,0 -3.382,-0.647 -4.747,-2.014 -6.113,-3.308 -6.76,-4.89 -6.76,-6.832 l 0,-6.616 c -1.511,-0.144 -2.878,-0.791 -4.027,-1.942 -1.368,-1.366 -2.015,-2.948 -2.015,-4.746 0,-1.942 0.647,-3.524 2.015,-4.891 1.149,-1.151 2.516,-1.797 4.027,-1.942 l 0,-19.346 c 0,-6.976 2.446,-12.873 7.336,-17.692 l 0,-0.07 c 4.89,-4.893 10.786,-7.338 17.692,-7.338 1.868,0 3.451,0.649 4.816,2.015 1.296,1.296 1.942,2.878 1.942,4.747 0,1.942 -0.646,3.524 -1.942,4.747 -1.365,1.365 -2.948,2.011 -4.816,2.011 -3.092,0 -5.827,1.153 -8.128,3.455 -2.229,2.228 -3.378,4.89 -3.378,8.125 l 0,19.346 6.615,0 c 1.942,0 3.524,0.648 4.891,1.942 1.222,1.367 1.868,2.949 1.868,4.891 0,1.798 -0.646,3.38 -1.868,4.746 -1.367,1.366 -2.949,2.014 -4.891,2.014 l -6.615,0 0,6.544 c 0,1.942 -0.65,3.524 -2.016,4.818 C 3.451,-0.647 1.868,0 0,0"
                 style="fill:#7aa13d;fill-opacity:1;fill-rule:nonzero;stroke:none"
                 id="path30"
                 inkscape:connector-curvature="0" />
            </g>
            <g
               id="g32"
               transform="translate(7304.3887,7221.2188)">
              <path
                 d="M 0,0 C -0.934,1.654 -2.302,2.661 -4.098,3.164 -8.701,4.386 -13.016,3.883 -16.973,1.51 -21,-0.791 -23.588,-4.172 -24.811,-8.703 c -0.073,0 -0.073,0 -0.073,-0.071 -1.293,-4.459 -0.72,-8.703 1.655,-12.802 2.373,-4.098 5.827,-6.69 10.357,-7.911 l -0.073,0 12.658,-3.379 c 0.79,-0.36 1.366,-0.865 1.799,-1.512 l 0,-0.143 c 0.503,-0.79 0.646,-1.656 0.429,-2.445 l 0,-0.073 c -0.286,-0.934 -0.862,-1.582 -1.652,-2.013 -0.503,-0.359 -1.079,-0.503 -1.582,-0.576 l -18.914,0 c -1.872,0 -3.454,-0.646 -4.82,-2.012 -1.366,-1.296 -2.012,-2.878 -2.012,-4.747 0,-1.872 0.646,-3.454 2.012,-4.82 1.366,-1.365 2.948,-2.012 4.82,-2.012 l 18.914,0 c 2.805,0 5.609,0.79 8.341,2.372 4.171,2.302 6.833,5.753 7.984,10.357 l 0.071,0 c 1.222,4.53 0.576,8.773 -1.942,12.874 -2.302,3.882 -5.537,6.472 -9.707,7.766 -0.073,0 -0.146,0 -0.217,0.072 l -12.585,3.309 -0.073,0 c -0.935,0.286 -1.582,0.791 -2.012,1.582 l 0,0.072 c -0.505,0.791 -0.649,1.654 -0.433,2.445 0.287,0.934 0.793,1.582 1.583,2.014 0,0.071 0,0.143 0.072,0.143 0.79,0.431 1.583,0.576 2.516,0.359 1.799,-0.502 3.454,-0.359 5.106,0.577 1.582,0.934 2.662,2.3 3.165,4.099 C 1.079,-3.308 0.936,-1.583 0,0"
                 style="fill:#7aa13d;fill-opacity:1;fill-rule:nonzero;stroke:none"
                 id="path34"
                 inkscape:connector-curvature="0" />
            </g>
            <g
               id="g36"
               transform="translate(7340.707,7237.04)">
              <path
                 d="m 0,0 0,0.647 c 0,2.374 -0.862,4.388 -2.515,6.041 -1.583,1.655 -3.524,2.518 -5.899,2.518 -2.372,0 -4.387,-0.863 -6.039,-2.518 -1.656,-1.653 -2.445,-3.667 -2.445,-6.041 l 0,-0.647 c 0,-2.374 0.789,-4.387 2.445,-6.041 1.652,-1.654 3.667,-2.445 6.039,-2.445 2.375,0 4.316,0.791 5.899,2.445 C -0.862,-4.387 0,-2.374 0,0"
                 style="fill:#7aa13d;fill-opacity:1;fill-rule:nonzero;stroke:none"
                 id="path38"
                 inkscape:connector-curvature="0" />
            </g>
            <g
               id="g40"
               transform="translate(7336.7529,7223.0161)">
              <path
                 d="m 0,0 c -1.365,1.366 -2.948,2.014 -4.89,2.014 -1.798,0 -3.381,-0.648 -4.747,-2.014 -1.366,-1.366 -2.014,-2.948 -2.014,-4.746 l 0,-43.438 c 0,-1.872 0.648,-3.454 2.014,-4.82 1.366,-1.366 2.949,-2.012 4.747,-2.012 1.942,0 3.525,0.646 4.89,2.012 1.293,1.366 1.942,2.948 1.942,4.82 l 0,43.438 C 1.942,-2.948 1.293,-1.366 0,0"
                 style="fill:#7aa13d;fill-opacity:1;fill-rule:nonzero;stroke:none"
                 id="path42"
                 inkscape:connector-curvature="0" />
            </g>
            <g
               id="g44"
               transform="translate(7062.1704,7205.9004)">
              <path
                 d="M 0,0 0,0.144 C 2.805,2.948 6.113,4.387 10.068,4.53 l 1.007,0 c 0.217,0 0.504,-0.071 0.72,-0.143 l 0.144,0 C 15.462,4.099 18.483,2.66 21.072,0 c 2.877,-2.805 4.315,-6.329 4.315,-10.502 0,-4.098 -1.438,-7.552 -4.387,-10.499 -2.949,-2.948 -6.4,-4.388 -10.5,-4.388 -4.171,0 -7.695,1.44 -10.5,4.388 -2.949,2.947 -4.387,6.401 -4.387,10.499 l 0,1.439 C -4.099,-5.538 -2.661,-2.518 0,0 m 13.089,17.907 c -0.647,0.072 -1.366,0.144 -2.014,0.144 l -1.15,0 -0.216,0 c -5.25,-0.072 -9.925,-1.51 -14.096,-4.172 l 0,17.908 c 0,1.87 -0.647,3.452 -1.941,4.819 -1.367,1.366 -2.949,2.014 -4.891,2.014 -1.798,0 -3.38,-0.648 -4.747,-2.014 -1.366,-1.367 -2.013,-2.949 -2.013,-4.819 l 0,-40.273 0,-2.016 c 0,-7.838 2.804,-14.454 8.342,-19.993 5.538,-5.609 12.226,-8.414 20.137,-8.414 7.839,0 14.527,2.734 20.137,8.27 5.538,5.611 8.271,12.299 8.271,20.137 0,7.912 -2.733,14.601 -8.271,20.139 -4.962,4.962 -10.859,7.767 -17.548,8.27"
                 style="fill:#00505c;fill-opacity:1;fill-rule:nonzero;stroke:none"
                 id="path46"
                 inkscape:connector-curvature="0" />
            </g>
            <g
               id="g48"
               transform="translate(7134.7354,7210.4307)">
              <path
                 d="M 0,0 C 1.655,0 3.165,-0.216 4.531,-0.719 L -14.24,-19.563 c -0.431,1.44 -0.647,2.949 -0.647,4.531 l 0,0.146 c 0,4.098 1.439,7.551 4.387,10.356 C -7.695,-1.51 -4.17,0 0,0 M 20.138,5.107 C 14.528,10.716 7.839,13.521 0,13.521 c -7.839,0 -14.599,-2.805 -20.137,-8.414 -5.537,-5.538 -8.342,-12.155 -8.342,-19.993 l 0,-0.146 c 0,-7.695 2.733,-14.238 8.127,-19.777 l 0.287,-0.36 c 5.61,-5.536 12.298,-8.27 20.065,-8.27 7.84,0 14.528,2.734 20.138,8.27 1.222,1.366 1.869,2.948 1.869,4.891 0,1.799 -0.647,3.381 -1.869,4.747 -1.367,1.365 -2.95,2.014 -4.891,2.014 -1.798,0 -3.38,-0.649 -4.747,-2.014 -2.876,-2.948 -6.4,-4.388 -10.5,-4.388 -1.654,0 -3.236,0.217 -4.674,0.649 l 24.812,24.883 c 1.222,1.366 1.869,2.949 1.869,4.747 0,1.87 -0.647,3.451 -1.869,4.747"
                 style="fill:#00505c;fill-opacity:1;fill-rule:nonzero;stroke:none"
                 id="path50"
                 inkscape:connector-curvature="0" />
            </g>
            <g
               id="g52"
               transform="translate(7188.5298,7210.4307)">
              <path
                 d="m 0,0 c 4.172,0 7.695,-1.51 10.645,-4.53 2.875,-2.805 4.314,-6.329 4.314,-10.502 l 0,-1.293 c -0.36,-3.524 -1.798,-6.545 -4.459,-9.064 l 0,-0.142 c -2.805,-2.806 -6.113,-4.244 -9.997,-4.388 l -1.078,0 c -0.215,0 -0.503,0.073 -0.718,0.144 l -0.073,0 c -3.524,0.289 -6.546,1.728 -9.134,4.244 -2.948,2.947 -4.386,6.401 -4.386,10.499 0,4.173 1.438,7.697 4.386,10.645 C -7.622,-1.438 -4.098,0 0,0 m 0,13.521 c -7.838,0 -14.455,-2.805 -19.993,-8.414 -5.61,-5.538 -8.414,-12.227 -8.414,-20.139 0,-7.838 2.733,-14.454 8.27,-19.993 4.963,-4.96 10.86,-7.765 17.62,-8.341 l 0,0.072 c 0.648,-0.072 1.294,-0.145 1.942,-0.145 l 1.151,0 0.216,0 c 5.394,0.073 10.284,1.582 14.527,4.46 0.286,-0.936 0.79,-1.726 1.582,-2.446 1.296,-1.365 2.878,-2.014 4.817,-2.014 1.799,0 3.381,0.649 4.746,2.014 1.369,1.296 2.016,2.878 2.016,4.747 l 0,19.777 0,1.869 c 0,7.912 -2.734,14.601 -8.272,20.139 C 14.672,10.716 7.911,13.521 0,13.521"
                 style="fill:#00505c;fill-opacity:1;fill-rule:nonzero;stroke:none"
                 id="path54"
                 inkscape:connector-curvature="0" />
            </g>
            <g
               id="g56"
               transform="translate(7229.4512,7224.0952)">
              <path
                 d="m 0,0 c -1.941,0 -3.524,-0.648 -4.819,-2.014 -1.367,-1.365 -2.013,-2.948 -2.013,-4.818 l 0,-43.51 c 0,-1.869 0.646,-3.451 2.013,-4.747 1.368,-1.366 2.95,-2.015 4.819,-2.015 1.799,0 3.381,0.649 4.747,2.015 1.366,1.296 2.013,2.878 2.013,4.747 l 0,25.387 c 0.072,3.093 1.151,5.681 3.307,7.838 2.302,2.302 5.037,3.452 8.128,3.452 3.238,0 5.896,-1.15 8.127,-3.452 l 0.071,0 c 2.231,-2.229 3.38,-4.962 3.38,-8.126 l 0,-25.099 c 0,-1.869 0.647,-3.451 2.016,-4.747 1.223,-1.366 2.805,-2.015 4.744,-2.015 1.871,0 3.454,0.649 4.746,2.015 1.369,1.296 2.016,2.878 2.016,4.747 l 0,25.099 c 0,6.975 -2.445,12.873 -7.335,17.691 l 0,0.072 c -4.891,4.892 -10.79,7.336 -17.765,7.336 -4.531,0 -8.701,-1.079 -12.369,-3.235 C 5.537,-2.948 5.177,-2.517 4.747,-2.014 3.381,-0.648 1.799,0 0,0"
                 style="fill:#00505c;fill-opacity:1;fill-rule:nonzero;stroke:none"
                 id="path58"
                 inkscape:connector-curvature="0" />
            </g>
          </g>
        </g>
        <g
           id="g60">
          <g
             id="g62"
             clip-path="url(#clipPath64)">
            <g
               id="g68">
              <g
                 id="g70">
                <path
                   d="m 6981.116,7206.835 c -2.089,-2.085 -3.165,-4.677 -3.165,-7.622 l 0,0 c 0,-2.949 1.076,-5.54 3.165,-7.626 l 0,0 c 2.082,-2.085 4.673,-3.165 7.622,-3.165 l 0,0 c 3.596,0 6.686,-1.29 9.205,-3.809 l 0,0 0,-0.072 0.072,0 c 2.66,-2.66 3.957,-5.754 3.957,-9.422 l 0,0 c 0,-3.596 -1.297,-6.689 -3.957,-9.205 l 0,0 -0.072,-0.072 0,-0.072 c -2.519,-2.591 -5.609,-3.882 -9.205,-3.882 l 0,0 c -3.668,0 -6.761,1.291 -9.422,3.954 l 0,0 c -1.767,1.767 -2.92,3.777 -3.48,6.017 l 0,0 c 1.626,-11.004 8.959,-44.896 35.659,-22.843 l 0,0 c 0.571,0.516 1.146,1.019 1.695,1.579 l 0,0 c 0.072,0 0.072,0 0.144,0.072 l 0,0 c 6.831,6.834 10.213,14.958 10.213,24.452 l 0,0 c 0,9.566 -3.455,17.766 -10.285,24.669 l 0,0 c -6.762,6.834 -14.958,10.209 -24.524,10.209 l 0,0 c -2.949,0 -5.54,-1.077 -7.622,-3.162"
                   style="fill:url(#linearGradient3146);stroke:none"
                   id="path78"
                   inkscape:connector-curvature="0" />
              </g>
            </g>
          </g>
        </g>
        <g
           id="g80">
          <g
             id="g82"
             clip-path="url(#clipPath84)">
            <g
               id="g88"
               transform="translate(6940.5576,7188.4375)">
              <path
                 d="m 0,0 c -9.565,0 -17.765,3.378 -24.524,10.21 -6.822,6.895 -10.273,15.08 -10.283,24.626 0,-0.014 -0.002,-0.028 -0.002,-0.042 0,-9.565 3.453,-17.762 10.285,-24.668 C -17.764,3.294 -9.565,-0.085 0,-0.085 c 2.949,0 5.538,1.077 7.623,3.165 2.085,2.085 3.165,4.674 3.165,7.623 0,0.014 -0.002,0.027 -0.002,0.041 C 10.776,7.814 9.699,5.24 7.623,3.164 5.538,1.076 2.948,0 0,0"
                 style="fill:#7aa13d;fill-opacity:1;fill-rule:nonzero;stroke:none"
                 id="path90"
                 inkscape:connector-curvature="0" />
            </g>
            <g
               id="g92"
               transform="translate(6940.5576,7236.5488)">
              <path
                 d="m 0,0 c -3.596,0 -6.689,-1.294 -9.206,-3.884 l 0,-0.07 -0.071,-0.073 c -2.662,-2.517 -3.956,-5.61 -3.956,-9.206 0,-0.014 0.002,-0.028 0.002,-0.042 0.01,3.578 1.303,6.656 3.954,9.163 l 0.071,0.073 0,0.071 c 2.518,2.59 5.61,3.885 9.206,3.885 3.667,0 6.76,-1.295 9.421,-3.956 1.482,-1.482 2.524,-3.135 3.158,-4.947 -0.627,1.843 -1.656,3.529 -3.159,5.032 C 6.76,-1.294 3.667,0 0,0"
                 style="fill:#7aa13d;fill-opacity:1;fill-rule:nonzero;stroke:none"
                 id="path94"
                 inkscape:connector-curvature="0" />
            </g>
          </g>
        </g>
        <g
           id="g96">
          <g
             id="g98"
             clip-path="url(#clipPath100)">
            <g
               id="g104">
              <g
                 id="g106">
                <path
                   d="m 6953.258,7227.208 c -0.039,0.119 -0.079,0.237 -0.121,0.356 l 0,0 c 0.04,-0.119 0.082,-0.237 0.121,-0.356 m 0.111,-0.359 c -0.033,0.121 -0.071,0.24 -0.111,0.359 l 0,0 c 0.039,-0.119 0.076,-0.238 0.111,-0.359"
                   style="fill:url(#linearGradient3148);stroke:none"
                   id="path114"
                   inkscape:connector-curvature="0" />
              </g>
            </g>
          </g>
        </g>
        <g
           id="g116">
          <g
             id="g118"
             clip-path="url(#clipPath120)">
            <g
               id="g124">
              <g
                 id="g126">
                <path
                   d="m 6917.8,7249.421 c -0.571,-0.517 -1.145,-1.019 -1.695,-1.579 l 0,0 c -0.072,0 -0.072,0 -0.144,-0.076 l 0,0 c -6.834,-6.83 -10.213,-14.958 -10.213,-24.452 l 0,0 c 0,-0.014 0,-0.025 0,-0.04 l 0,0 c 0.011,9.476 3.387,17.589 10.21,24.409 l 0,0 c 0.072,0.072 0.072,0.072 0.144,0.072 l 0,0 c 0.763,0.781 1.554,1.507 2.356,2.198 l 0,0 c -0.22,-0.178 -0.437,-0.348 -0.661,-0.532"
                   style="fill:url(#linearGradient3150);stroke:none"
                   id="path134"
                   inkscape:connector-curvature="0" />
              </g>
            </g>
          </g>
        </g>
        <g
           id="g136">
          <g
             id="g138"
             clip-path="url(#clipPath140)">
            <g
               id="g144">
              <g
                 id="g146">
                <path
                   d="m 6927.323,7223.231 c 0,-3.668 1.294,-6.758 3.957,-9.421 l 0,0 0.073,0 0,-0.073 c 2.515,-2.515 5.608,-3.809 9.204,-3.809 l 0,0 c 2.949,0 5.537,-1.08 7.622,-3.165 l 0,0 c 2.078,-2.075 3.155,-4.652 3.166,-7.582 l 0,0 c 0,0.014 0,0.028 0,0.043 l 0,0 c 0,2.949 -1.081,5.54 -3.166,7.625 l 0,0 c -2.085,2.086 -4.673,3.162 -7.622,3.162 l 0,0 c -3.596,0 -6.689,1.294 -9.204,3.813 l 0,0 0,0.069 -0.073,0 c -2.653,2.652 -3.943,5.732 -3.953,9.381 l 0,0 c 0,-0.014 0,-0.028 0,-0.043"
                   style="fill:url(#linearGradient3152);stroke:none"
                   id="path154"
                   inkscape:connector-curvature="0" />
              </g>
            </g>
          </g>
        </g>
        <g
           id="g156">
          <g
             id="g158"
             clip-path="url(#clipPath160)">
            <g
               id="g164"
               transform="translate(6918.4634,7249.9536)">
              <path
                 d="m 0,0 c -0.804,-0.692 -1.594,-1.417 -2.358,-2.198 -0.072,0 -0.072,0 -0.144,-0.071 -6.822,-6.822 -10.201,-14.936 -10.21,-24.411 0.009,-9.547 3.461,-17.731 10.282,-24.626 6.76,-6.832 14.959,-10.21 24.524,-10.21 2.948,0 5.538,1.076 7.623,3.164 2.076,2.076 3.153,4.65 3.163,7.58 -0.01,2.931 -1.087,5.506 -3.163,7.582 -2.085,2.085 -4.674,3.164 -7.623,3.164 -3.596,0 -6.688,1.295 -9.205,3.811 l 0,0.072 -0.072,0 c -2.662,2.661 -3.956,5.754 -3.956,9.421 0,0.014 0.002,0.028 0.002,0.042 0,0.014 -0.002,0.028 -0.002,0.042 0,3.596 1.294,6.689 3.956,9.206 l 0.072,0.073 0,0.07 c 2.516,2.59 5.609,3.884 9.205,3.884 3.668,0 6.76,-1.294 9.421,-3.954 1.503,-1.502 2.531,-3.188 3.158,-5.032 0.083,-0.236 0.165,-0.472 0.233,-0.714 0.025,-0.093 0.065,-0.178 0.088,-0.271 C 33.38,-12.465 26.157,20.94 0,0"
                 style="fill:#7aa13d;fill-opacity:1;fill-rule:nonzero;stroke:none"
                 id="path166"
                 inkscape:connector-curvature="0" />
            </g>
          </g>
        </g>
        <g
           id="g168">
          <g
             id="g170"
             clip-path="url(#clipPath172)">
            <g
               id="g176">
              <g
                 id="g178">
                <path
                   d="m 6918.461,7249.953 c -0.802,-0.691 -1.593,-1.417 -2.356,-2.198 l 0,0 c -0.072,0 -0.072,0 -0.144,-0.072 l 0,0 c -6.823,-6.82 -10.199,-14.933 -10.21,-24.409 l 0,0 c 0.011,-9.547 3.459,-17.733 10.282,-24.628 l 0,0 c 6.758,-6.831 14.958,-10.21 24.524,-10.21 l 0,0 c 2.949,0 5.537,1.077 7.622,3.166 l 0,0 c 2.078,2.074 3.155,4.651 3.166,7.579 l 0,0 c -0.011,2.93 -1.088,5.507 -3.166,7.582 l 0,0 c -2.085,2.085 -4.673,3.165 -7.622,3.165 l 0,0 c -3.596,0 -6.689,1.294 -9.204,3.809 l 0,0 0,0.073 -0.073,0 c -2.663,2.663 -3.957,5.753 -3.957,9.421 l 0,0 c 0,0.015 0,0.029 0,0.043 l 0,0 c 0,0.015 0,0.026 0,0.04 l 0,0 c 0,3.596 1.294,6.689 3.957,9.208 l 0,0 0.073,0.073 0,0.069 c 2.515,2.591 5.608,3.884 9.204,3.884 l 0,0 c 3.668,0 6.762,-1.293 9.422,-3.953 l 0,0 c 1.503,-1.504 2.529,-3.188 3.158,-5.031 l 0,0 c 0.083,-0.238 0.163,-0.473 0.232,-0.715 l 0,0 c 0.025,-0.094 0.065,-0.178 0.086,-0.271 l 0,0 c -1.241,8.4 -5.809,30.134 -19.782,30.134 l 0,0 c -4.176,10e-4 -9.193,-1.941 -15.212,-6.759"
                   style="fill:url(#linearGradient3154);stroke:none"
                   id="path186"
                   inkscape:connector-curvature="0" />
              </g>
            </g>
          </g>
        </g>
        <g
           id="g188">
          <g
             id="g190"
             clip-path="url(#clipPath192)">
            <g
               id="g196"
               transform="translate(6975.8379,7171.8584)">
              <path
                 d="m 0,0 c -0.26,1.039 -0.405,2.122 -0.405,3.261 l 0,23.929 c 0,0.031 0.005,0.061 0.005,0.092 l 0,6.738 0,17.353 c 0,9.565 -3.381,17.692 -10.213,24.524 -6.832,6.833 -15.102,10.285 -24.667,10.285 -8.472,0 -15.867,-2.721 -22.095,-8.087 26.157,20.941 33.38,-12.465 34.994,-23.376 -0.023,0.093 -0.062,0.178 -0.087,0.271 0.322,-1.144 0.492,-2.348 0.492,-3.617 l 0,-23.928 c 0,-0.031 -0.004,-0.061 -0.004,-0.091 l 0,-24.093 c 0,-9.565 3.38,-17.693 10.212,-24.525 6.832,-6.832 15.102,-10.283 24.668,-10.283 8.78,0 16.392,2.943 22.758,8.704 C 8.956,-44.894 1.626,-11.004 0,0"
                 style="fill:#7aa13d;fill-opacity:1;fill-rule:nonzero;stroke:none"
                 id="path198"
                 inkscape:connector-curvature="0" />
            </g>
          </g>
        </g>
      </g>
    </g>
  </g>
</svg>
